<?xml version="1.0" encoding="UTF-8" standalone="no"?>
<svg
   xmlns:dc="http://purl.org/dc/elements/1.1/"
   xmlns:cc="http://creativecommons.org/ns#"
   xmlns:rdf="http://www.w3.org/1999/02/22-rdf-syntax-ns#"
   xmlns:svg="http://www.w3.org/2000/svg"
   xmlns="http://www.w3.org/2000/svg"
   viewBox="0 0 650 262.5"
   height="262.5"
   width="650"
   xml:space="preserve"
   version="1.1"
   id="svg2"><metadata
     id="metadata8"><rdf:RDF><cc:Work
         rdf:about=""><dc:format>image/svg+xml</dc:format><dc:type
           rdf:resource="http://purl.org/dc/dcmitype/StillImage" /><dc:title></dc:title></cc:Work></rdf:RDF></metadata><defs
     id="defs6"><clipPath
       id="clipPath22"
       clipPathUnits="userSpaceOnUse"><path
         style="clip-rule:evenodd"
         id="path24"
         d="m 20,190 30,0 c 22.08,0 40,-17.92 40,-40 0,-22.08 -17.92,-40 -40,-40 l -30,0 0,80 z M 10,10 l 0,190 40,0 c 27.6,0 50,-22.4 50,-50 0,-27.6 -22.4,-50 -50,-50 l 62,-90 -12,0 -62,90 -18,0 0,-90 -10,0" /></clipPath></defs><g
     transform="matrix(1.25,0,0,-1.25,0,262.5)"
     id="g10"><path
       id="path12"
       style="fill:#ffffff;fill-opacity:0;fill-rule:nonzero;stroke:none"
       d="m 0.06,210.06 519.96,0 0,-210 -519.96,0 0,210 z" /><path
       id="path14"
       style="fill:none;stroke:#808080;stroke-width:0.25;stroke-linecap:butt;stroke-linejoin:miter;stroke-miterlimit:10;stroke-dasharray:none;stroke-opacity:1"
       d="m 0,100 500,0 M 0,110 500,110 M 0,10 500,10 M 0,200 500,200 M 0,190 500,190 M 0,180 500,180 M 0,150 500,150 M 0,60 500,60 M 0,20 500,20" /><path
       id="path16"
       style="fill:none;stroke:#808080;stroke-width:1;stroke-linecap:butt;stroke-linejoin:miter;stroke-miterlimit:10;stroke-dasharray:none;stroke-opacity:1"
       d="m 20,190 30,0 c 22.08,0 40,-17.92 40,-40 0,-22.08 -17.92,-40 -40,-40 l -30,0 0,80 z M 10,10 l 0,190 40,0 c 27.6,0 50,-22.4 50,-50 0,-27.6 -22.4,-50 -50,-50 l 62,-90 -12,0 -62,90 -18,0 0,-90 -10,0 z M 10,0 10,210 M 20,0 20,210 M 0,10 100,10 M 0,200 100,200 M 50,0 50,210 M 0,100 100,100 M 0,110 100,110 M 0,190 100,190 M 0,150 110,150 M 25,106.699 C 32.601,102.31 41.223,100 50,100 c 27.6,0 50,22.4 50,50 0,27.6 -22.4,50 -50,50 -8.777,0 -17.399,-2.31 -25,-6.699 m 5,-77.942 C 36.081,111.848 42.979,110 50,110 c 22.08,0 40,17.92 40,40 0,22.08 -17.92,40 -40,40 -7.021,0 -13.919,-1.848 -20,-5.359" /><g
       id="g18"><g
         clip-path="url(#clipPath22)"
         id="g20"><path
           id="path26"
           style="fill:#000000;fill-opacity:1;fill-rule:nonzero;stroke:#000000;stroke-width:2;stroke-linecap:butt;stroke-linejoin:miter;stroke-miterlimit:10;stroke-dasharray:none;stroke-opacity:1"
           d="m 20,190 30,0 c 22.08,0 40,-17.92 40,-40 0,-22.08 -17.92,-40 -40,-40 l -30,0 0,80 z M 10,10 l 0,190 40,0 c 27.6,0 50,-22.4 50,-50 0,-27.6 -22.4,-50 -50,-50 l 62,-90 -12,0 -62,90 -18,0 0,-90 -10,0 z" /></g></g><path
       id="path28"
       style="fill:none;stroke:#000000;stroke-width:2;stroke-linecap:butt;stroke-linejoin:miter;stroke-miterlimit:10;stroke-dasharray:none;stroke-opacity:1"
       d="m 20,190 30,0 c 22.08,0 40,-17.92 40,-40 0,-22.08 -17.92,-40 -40,-40 l -30,0 0,80 z M 10,10 l 0,190 40,0 c 27.6,0 50,-22.4 50,-50 0,-27.6 -22.4,-50 -50,-50 l 62,-90 -12,0 -62,90 -18,0 0,-90 -10,0 z" /><path
       id="path30"
       style="fill:none;stroke:#808080;stroke-width:1;stroke-linecap:butt;stroke-linejoin:miter;stroke-miterlimit:10;stroke-dasharray:none;stroke-opacity:1"
       d="m 130,0 0,210 M 220,0 220,210 M 195,0 195,210 M 120,10 230,10 m -110,10 110,0 m -110,80 110,0 m -110,10 110,0 m -110,80 110,0 m -110,10 110,0" /><path
       id="path32"
       style="fill:#000000;fill-opacity:1;fill-rule:nonzero;stroke:#000000;stroke-width:2;stroke-linecap:butt;stroke-linejoin:miter;stroke-miterlimit:10;stroke-dasharray:none;stroke-opacity:1"
       d="m 130,10 90,0 0,10 -80,0 0,80 55,0 0,10 -55,0 0,80 80,0 0,10 -90,0 0,-190 z" /><path
       id="path34"
       style="fill:none;stroke:#808080;stroke-width:1;stroke-linecap:butt;stroke-linejoin:miter;stroke-miterlimit:10;stroke-dasharray:none;stroke-opacity:1"
       d="m 250,0 0,210 M 260,0 260,210 M 360,0 360,210 M 370,0 370,210 M 240,10 380,10 m -140,190 140,0 m -140,-100 140,0 m -140,10 140,0 m -140,80 140,0 m -140,-10 140,0" /><path
       id="path36"
       style="fill:#000000;fill-opacity:1;fill-rule:nonzero;stroke:#000000;stroke-width:2;stroke-linecap:butt;stroke-linejoin:miter;stroke-miterlimit:10;stroke-dasharray:none;stroke-opacity:1"
       d="m 250,10 0,190 10,0 50,-90 50,90 10,0 0,-190 -10,0 0,170 -45,-80 -10,0 -45,80 0,-170 -10,0 z" /><path
       id="path38"
       style="fill:none;stroke:#808080;stroke-width:1;stroke-linecap:butt;stroke-linejoin:miter;stroke-miterlimit:10;stroke-dasharray:none;stroke-opacity:1"
       d="m 440,0 0,210 M 390,10 490,10 m -100,50 100,0 m -100,90 100,0 m -100,-50 100,0 m -100,10 100,0 m -100,80 100,0 m -100,10 100,0 m -12.412,-63.681 c 1.596,4.385 2.412,9.015 2.412,13.681 0,22.08 -17.92,40 -40,40 -22.08,0 -40,-17.92 -40,-40 0,-22.08 17.92,-40 40,-40 27.6,0 50,-22.4 50,-50 0,-27.6 -22.4,-50 -50,-50 -27.6,0 -50,22.4 -50,50 0,5.833 1.021,11.62 3.015,17.101 m 9.397,-3.42 C 400.816,69.296 400,64.666 400,60 c 0,-22.08 17.92,-40 40,-40 22.08,0 40,17.92 40,40 0,22.08 -17.92,40 -40,40 -27.6,0 -50,22.4 -50,50 0,27.6 22.4,50 50,50 27.6,0 50,-22.4 50,-50 0,-5.833 -1.021,-11.62 -3.015,-17.101" /><path
       id="path40"
       style="fill:#000000;fill-opacity:1;fill-rule:nonzero;stroke:#000000;stroke-width:2;stroke-linecap:butt;stroke-linejoin:miter;stroke-miterlimit:10;stroke-dasharray:none;stroke-opacity:1"
       d="m 480,150 c 0,22.08 -17.92,40 -40,40 -22.08,0 -40,-17.92 -40,-40 0,-22.08 17.92,-40 40,-40 27.6,0 50,-22.4 50,-50 0,-27.6 -22.4,-50 -50,-50 -27.6,0 -50,22.4 -50,50 l 10,0 c 0,-22.08 17.92,-40 40,-40 22.08,0 40,17.92 40,40 0,22.08 -17.92,40 -40,40 -27.6,0 -50,22.4 -50,50 0,27.6 22.4,50 50,50 27.6,0 50,-22.4 50,-50 l -10,0 z" /></g></svg>
